<?xml version="1.0" encoding="UTF-8" standalone="no"?>
<svg
   xmlns:dc="http://purl.org/dc/elements/1.1/"
   xmlns:cc="http://creativecommons.org/ns#"
   xmlns:rdf="http://www.w3.org/1999/02/22-rdf-syntax-ns#"
   xmlns:svg="http://www.w3.org/2000/svg"
   xmlns="http://www.w3.org/2000/svg"
   xmlns:sodipodi="http://sodipodi.sourceforge.net/DTD/sodipodi-0.dtd"
   xmlns:inkscape="http://www.inkscape.org/namespaces/inkscape"
   version="1.0"
   width="100"
   height="100"
   viewBox="0 0 80 80"
   preserveAspectRatio="xMidYMid meet"
   id="svg2"
   inkscape:version="0.48.4 r9939"
   sodipodi:docname="bbbb.svg">
  <title
     id="title3197">Banco Central de Venezuela logo</title>
  <defs
     id="defs218" />
  <sodipodi:namedview
     pagecolor="#ffffff"
     bordercolor="#666666"
     borderopacity="1"
     objecttolerance="10"
     gridtolerance="10"
     guidetolerance="10"
     inkscape:pageopacity="0"
     inkscape:pageshadow="2"
     inkscape:window-width="1600"
     inkscape:window-height="844"
     id="namedview216"
     showgrid="false"
     inkscape:zoom="1"
     inkscape:cx="33.810428"
     inkscape:cy="41.43326"
     inkscape:window-x="-4"
     inkscape:window-y="-4"
     inkscape:window-maximized="1"
     inkscape:current-layer="svg2" />
  <metadata
     id="metadata4">
Created by potrace 1.12, written by Peter Selinger 2001-2015
<rdf:RDF>
  <cc:Work
     rdf:about="">
    <dc:format>image/svg+xml</dc:format>
    <dc:type
       rdf:resource="http://purl.org/dc/dcmitype/StillImage" />
    <dc:title>Banco Central de Venezuela logo</dc:title>
  </cc:Work>
</rdf:RDF>
</metadata>
  <g
     transform="matrix(0.00870501,0,0,-0.00891425,-1.3303693,81.822978)"
     id="g6"
     style="fill:#000000;stroke:none">
    <path
       d="M 4405,9093 C 3405,9027 2422,8610 1679,7937 876,7210 380,6247 254,5170 233,4984 225,4554 239,4355 308,3409 660,2555 1278,1833 c 115,-136 395,-414 527,-524 614,-516 1349,-856 2130,-988 295,-50 380,-56 800,-56 356,1 418,3 568,23 899,119 1674,455 2357,1020 135,112 434,408 541,537 683,816 1039,1789 1039,2840 0,1561 -802,2958 -2175,3790 -139,84 -473,249 -630,310 -415,163 -831,260 -1285,300 -148,13 -595,18 -745,8 z m 730,-79 c 1128,-100 2221,-652 2956,-1494 584,-668 948,-1490 1055,-2385 26,-211 26,-708 1,-920 C 9031,3242 8621,2378 7945,1681 6728,426 4891,-3 3240,583 c -376,133 -782,344 -1110,577 -375,266 -756,646 -1020,1015 -161,226 -342,547 -458,811 -155,351 -267,759 -322,1174 -27,200 -38,636 -21,842 55,662 252,1290 578,1840 880,1488 2519,2325 4248,2172 z"
       id="path10"
       inkscape:connector-curvature="0" />
    <path
       d="m 4415,8779 c -114,-9 -343,-36 -382,-46 -13,-3 -23,-10 -23,-15 0,-5 49,-67 109,-137 60,-70 114,-136 121,-147 11,-17 1,-40 -81,-187 -52,-91 -98,-167 -104,-167 -15,0 -300,230 -303,245 -2,7 20,86 47,176 28,90 51,169 51,176 0,21 -47,15 -205,-27 -213,-56 -409,-123 -413,-142 -2,-9 53,-60 143,-132 127,-102 145,-120 139,-139 -4,-12 -31,-97 -61,-189 l -54,-168 -167,87 c -92,47 -172,91 -178,97 -8,8 -7,56 7,181 22,213 22,205 2,205 -22,0 -352,-163 -465,-230 -60,-35 -88,-57 -88,-70 0,-14 42,-41 165,-105 90,-47 166,-89 168,-93 6,-10 -44,-375 -52,-384 -7,-8 -359,96 -374,111 -5,5 -16,92 -24,193 -9,100 -17,185 -19,187 -10,12 -63,-19 -166,-96 -177,-133 -348,-282 -348,-303 0,-19 1,-20 258,-96 48,-14 93,-32 101,-39 15,-15 46,-374 33,-387 -12,-12 -364,22 -380,37 -8,7 -36,88 -63,179 -53,182 -54,186 -72,186 -39,0 -417,-444 -417,-489 0,-15 24,-20 193,-35 116,-10 196,-22 203,-29 13,-14 110,-374 103,-381 -6,-7 -373,-45 -381,-40 -4,3 -48,83 -98,179 -65,125 -96,175 -108,175 -31,0 -322,-515 -322,-570 0,-24 -17,-24 205,-1 99,11 185,15 190,11 15,-13 180,-348 174,-355 -3,-2 -85,-29 -182,-59 -136,-41 -180,-51 -191,-42 -8,6 -65,74 -126,151 -62,77 -118,141 -125,143 -18,4 -32,-30 -100,-233 -57,-171 -120,-404 -110,-413 3,-3 94,22 202,56 108,33 200,59 205,56 12,-8 238,-304 238,-313 0,-4 -75,-48 -167,-98 -118,-64 -172,-88 -183,-82 -8,4 -78,62 -155,128 -123,106 -175,139 -175,114 0,-5 -7,-49 -15,-100 -21,-127 -45,-390 -45,-485 0,-65 3,-78 16,-78 9,0 73,31 142,69 70,37 146,78 169,90 l 42,21 152,-131 c 123,-107 148,-134 137,-144 -7,-6 -67,-56 -133,-110 -66,-54 -128,-105 -137,-113 -16,-13 -34,-6 -184,77 -92,50 -176,91 -187,91 -19,0 -20,-5 -14,-149 6,-133 38,-426 53,-487 3,-13 11,-24 18,-24 6,0 79,56 161,125 83,68 153,123 156,122 27,-10 339,-194 339,-200 0,-4 -54,-75 -120,-156 l -121,-149 -182,59 c -100,32 -188,59 -194,59 -8,0 -13,-12 -13,-27 0,-83 163,-596 192,-601 9,-2 57,49 128,135 62,76 116,139 121,141 10,4 379,-117 379,-124 0,-3 -41,-81 -91,-174 -62,-116 -96,-170 -107,-170 -9,0 -75,7 -147,15 -172,19 -215,19 -215,0 0,-34 192,-391 282,-522 16,-24 36,-43 44,-43 10,0 43,58 94,164 43,90 84,167 90,171 14,9 371,-25 387,-37 8,-7 4,-38 -18,-121 -17,-62 -39,-146 -50,-188 l -20,-76 -107,-12 c -238,-26 -282,-33 -282,-47 0,-35 390,-484 420,-484 11,0 27,45 60,171 24,94 49,178 55,186 16,22 374,59 390,41 15,-16 -7,-361 -24,-381 -6,-7 -87,-37 -181,-67 -136,-43 -170,-57 -170,-71 0,-39 483,-420 504,-398 2,2 10,92 16,199 7,107 13,196 14,197 7,8 371,113 381,110 8,-4 52,-279 59,-375 1,-7 -73,-55 -164,-105 -95,-53 -166,-100 -168,-109 -2,-12 25,-33 92,-73 130,-76 436,-225 464,-225 28,0 28,9 2,204 -11,81 -20,156 -20,166 0,13 47,43 171,110 94,51 174,88 179,84 9,-10 120,-343 120,-360 0,-6 -62,-64 -137,-129 -76,-65 -138,-125 -138,-134 0,-20 187,-84 411,-141 175,-45 194,-47 194,-22 0,9 -25,93 -55,186 -29,94 -52,173 -50,176 8,13 306,242 310,238 6,-5 185,-327 188,-337 1,-4 -49,-69 -110,-144 -62,-74 -113,-144 -113,-155 0,-17 11,-21 78,-31 142,-20 256,-31 405,-37 140,-7 147,-6 147,12 0,10 -38,89 -85,174 -71,131 -82,157 -71,170 7,8 64,75 126,148 62,73 116,132 120,130 6,-3 193,-222 239,-280 11,-15 2,-37 -73,-179 -47,-89 -86,-166 -86,-172 0,-12 196,-3 391,18 183,21 259,35 259,49 0,6 -52,73 -115,148 -63,76 -115,142 -115,148 0,11 166,319 180,333 8,9 320,-228 320,-243 0,-5 -22,-80 -50,-167 -27,-87 -50,-166 -50,-175 0,-25 16,-23 170,18 208,55 414,126 418,145 2,11 -46,57 -133,130 -74,63 -135,120 -135,129 0,30 115,360 125,358 5,-2 85,-43 178,-92 194,-104 177,-70 147,-292 -24,-176 -23,-174 -7,-174 19,0 310,144 439,218 76,43 118,73 118,83 0,11 -50,44 -147,97 -82,45 -155,87 -164,94 -15,12 -15,26 7,183 13,94 24,178 24,188 0,9 7,17 15,17 22,0 358,-101 371,-111 6,-5 14,-59 18,-122 12,-214 17,-247 35,-247 35,0 481,357 481,385 0,8 -61,33 -162,65 -90,28 -169,58 -177,65 -9,9 -17,70 -27,195 -7,101 -12,186 -9,189 6,11 379,-29 392,-42 6,-7 30,-83 54,-170 25,-94 48,-161 56,-164 18,-7 69,42 190,182 123,142 213,260 213,279 0,18 -12,20 -205,41 -78,9 -145,21 -151,28 -13,14 -108,367 -100,374 8,9 367,45 383,39 8,-3 47,-76 88,-161 56,-117 79,-155 93,-155 12,0 40,37 91,121 81,133 221,402 221,425 0,18 -13,18 -193,-2 -87,-10 -152,-13 -157,-8 -4,5 -48,84 -98,176 l -90,167 147,51 c 80,28 165,57 189,63 42,11 44,11 66,-18 86,-109 194,-230 207,-233 18,-3 79,158 139,370 48,170 58,228 39,228 -8,0 -89,-24 -181,-54 -91,-29 -170,-50 -175,-47 -15,10 -243,292 -243,300 0,7 300,184 330,195 9,4 68,-39 153,-109 76,-63 144,-115 152,-115 8,0 17,10 20,23 18,83 55,444 55,550 0,45 -3,57 -16,57 -8,0 -84,-38 -168,-85 -84,-47 -156,-85 -160,-85 -9,0 -306,242 -305,249 1,13 292,256 302,253 7,-2 79,-39 160,-83 82,-43 158,-79 169,-79 20,0 21,3 14,128 -13,250 -51,522 -71,522 -8,0 -77,-54 -154,-120 -77,-66 -146,-120 -153,-120 -16,0 -339,173 -342,183 -3,14 235,316 247,312 86,-29 346,-105 359,-105 11,0 18,7 18,18 0,50 -131,484 -171,568 -8,16 -22,29 -31,29 -9,0 -66,-63 -128,-140 -61,-77 -113,-141 -114,-142 -4,-4 -360,107 -368,115 -8,8 135,313 163,348 8,10 80,5 327,-21 77,-8 77,-7 18,118 -103,212 -246,447 -273,447 -13,0 -40,-43 -95,-153 -42,-83 -83,-160 -90,-169 -12,-16 -23,-16 -197,2 -101,10 -188,23 -193,28 -7,7 7,77 39,199 l 50,188 197,19 c 156,15 196,22 196,34 0,37 -382,482 -415,482 -6,0 -34,-79 -65,-185 -51,-178 -54,-185 -79,-186 -14,0 -99,-8 -189,-18 -119,-12 -165,-14 -172,-6 -13,15 11,374 25,389 6,6 87,34 180,61 96,29 170,56 173,64 6,15 -19,39 -183,175 -208,173 -325,251 -325,218 0,-49 -32,-368 -38,-373 -8,-9 -339,-109 -358,-109 -7,0 -15,4 -18,8 -10,17 -57,387 -49,390 4,1 78,40 163,85 120,63 155,86 155,102 0,14 -25,34 -90,73 -135,80 -409,212 -439,212 -32,0 -32,-6 -11,-200 8,-74 15,-145 15,-157 0,-18 -29,-36 -166,-108 -91,-48 -171,-84 -178,-82 -6,3 -38,87 -70,186 -50,155 -57,184 -45,195 8,7 72,59 142,116 81,66 127,109 125,119 -5,29 -500,181 -588,181 -17,0 -30,-5 -30,-12 0,-7 24,-89 54,-183 50,-159 53,-171 37,-189 -17,-19 -280,-231 -287,-231 -2,0 -49,78 -103,174 l -99,174 119,141 c 65,77 119,147 119,153 0,7 -10,15 -22,18 -84,18 -463,55 -575,55 -34,0 -43,-4 -43,-17 0,-10 38,-87 85,-172 73,-133 83,-157 71,-170 -7,-9 -64,-76 -126,-149 -62,-73 -116,-132 -120,-130 -6,2 -182,209 -239,281 -12,15 -3,36 73,177 47,88 86,165 86,170 0,11 -75,11 -235,-1 z m 571,-618 60,-78 -29,-269 -28,-269 -120,-227 -119,-227 0,-179 0,-179 113,-6 c 61,-3 114,-4 115,-2 8,7 122,1262 122,1336 0,15 123,128 149,137 4,1 34,-43 65,-98 l 56,-101 -125,-642 c -69,-353 -123,-647 -120,-655 3,-8 16,-12 32,-10 l 28,3 126,648 c 70,356 128,649 130,651 2,1 39,31 82,65 90,73 80,75 147,-33 l 43,-70 -72,-255 c -174,-615 -291,-1055 -284,-1061 16,-14 126,-50 151,-50 25,0 31,10 91,159 l 64,160 -21,228 c -12,125 -22,243 -22,261 0,31 132,509 150,542 9,16 168,105 176,98 2,-3 20,-51 39,-108 l 35,-103 -162,-394 c -168,-409 -171,-423 -122,-431 17,-2 43,54 183,398 l 164,401 86,44 c 47,24 91,46 96,47 6,2 24,-39 42,-89 l 32,-93 -125,-245 -125,-244 -198,-161 -198,-161 -67,-162 c -36,-89 -66,-166 -66,-170 0,-10 176,-97 198,-97 18,0 214,372 515,975 l 125,251 88,26 c 49,15 92,24 96,20 4,-4 13,-54 21,-111 l 14,-105 -359,-554 c -239,-369 -358,-562 -356,-576 2,-14 11,-22 28,-24 23,-2 56,46 386,555 l 360,558 97,29 c 61,19 101,26 107,20 5,-5 15,-48 23,-96 l 13,-86 -163,-211 c -370,-479 -673,-881 -673,-894 0,-17 113,-117 133,-117 8,0 70,60 139,133 l 124,132 70,238 69,238 173,222 173,222 87,13 c 47,7 92,10 99,8 14,-6 17,-85 7,-172 l -7,-52 -298,-308 c -165,-170 -299,-313 -299,-319 0,-16 22,-35 40,-35 8,0 148,137 310,305 323,334 296,314 434,318 l 79,2 -2,-83 c -1,-46 -5,-90 -7,-97 -5,-12 -403,-363 -428,-376 -6,-4 -118,-39 -249,-80 l -238,-72 -126,-134 c -70,-74 -123,-138 -120,-146 9,-23 119,-147 131,-147 11,0 554,456 885,744 l 183,159 85,-7 c 47,-3 90,-9 95,-12 11,-7 7,-35 -23,-144 l -20,-75 -539,-370 c -296,-204 -539,-376 -539,-382 -1,-9 15,-13 47,-13 47,0 61,9 557,351 l 510,351 96,-7 c 53,-4 102,-10 109,-15 10,-6 9,-24 -5,-89 -10,-45 -23,-88 -29,-96 -9,-11 -583,-347 -768,-449 -56,-31 -49,-46 20,-46 63,0 82,-11 82,-47 0,-44 29,-22 123,95 l 95,118 241,137 242,137 80,-21 c 121,-34 119,-29 64,-140 -26,-52 -49,-96 -51,-98 -2,-2 -178,-79 -391,-170 -364,-157 -388,-169 -391,-194 -2,-17 2,-29 12,-33 8,-3 188,69 400,160 212,91 391,166 397,166 28,0 191,-55 195,-65 3,-7 -12,-47 -33,-91 l -38,-79 -260,-88 -260,-89 -190,16 c -104,9 -200,16 -212,16 -22,0 -23,-3 -23,-110 0,-89 3,-110 14,-110 16,0 471,145 751,240 l 180,61 88,-43 c 48,-23 87,-47 87,-53 0,-5 -31,-48 -68,-94 l -67,-84 -385,-82 c -212,-45 -433,-93 -492,-105 l -108,-23 0,-33 c 0,-19 3,-34 8,-34 4,0 227,47 496,105 l 489,104 86,-44 c 47,-25 92,-49 100,-54 11,-7 3,-25 -44,-90 -32,-45 -63,-81 -68,-81 -31,0 -983,-125 -1039,-136 l -28,-6 0,-109 0,-109 48,0 c 41,0 74,15 267,121 l 220,121 269,34 c 208,26 274,31 290,22 27,-15 146,-110 146,-117 0,-3 -38,-38 -84,-78 l -83,-72 -432,-7 -431,-7 0,-32 0,-32 428,5 427,5 51,-39 c 28,-22 67,-53 88,-70 l 37,-31 -75,-66 -74,-67 -269,20 -270,19 -228,121 c -201,106 -233,120 -276,120 l -49,0 0,-125 c 0,-77 4,-125 10,-125 6,0 112,-9 238,-20 125,-11 360,-29 522,-40 162,-12 302,-23 311,-26 18,-5 124,-130 124,-147 0,-6 -42,-35 -93,-64 l -93,-54 -488,91 c -268,49 -498,90 -509,90 -18,0 -22,-6 -22,-30 0,-17 6,-33 13,-35 6,-3 229,-45 495,-94 265,-49 490,-95 498,-102 22,-18 137,-160 133,-163 -2,-1 -39,-24 -83,-51 l -78,-48 -157,43 c -409,111 -788,210 -803,210 -16,0 -18,-11 -18,-100 l 0,-100 38,0 c 20,0 114,9 209,19 l 171,19 268,-74 c 148,-41 274,-80 280,-87 22,-24 94,-166 87,-170 -4,-2 -51,-19 -104,-36 l -96,-32 -392,156 c -215,85 -400,155 -410,155 -20,0 -38,-47 -24,-61 4,-4 184,-77 398,-162 l 390,-155 52,-93 c 28,-52 48,-97 45,-100 -4,-3 -43,-19 -87,-34 l -80,-28 -260,131 -260,132 -98,120 c -54,66 -105,120 -112,120 -8,0 -15,-10 -17,-22 -3,-22 -8,-23 -95,-26 -71,-2 -93,-6 -93,-17 0,-14 195,-125 620,-355 135,-73 250,-137 257,-144 12,-12 53,-142 53,-168 0,-19 -21,-25 -130,-33 l -85,-7 -519,361 c -508,353 -520,361 -568,361 -34,0 -48,-4 -48,-14 0,-7 243,-181 540,-387 366,-254 542,-382 549,-399 20,-49 53,-182 46,-188 -4,-4 -45,-12 -92,-18 l -86,-10 -45,34 c -25,19 -108,87 -186,151 -331,276 -859,701 -869,701 -13,0 -117,-123 -117,-137 1,-4 60,-69 133,-145 l 132,-136 220,-72 c 121,-40 233,-79 249,-87 55,-28 435,-352 441,-375 2,-13 6,-57 7,-98 l 3,-75 -90,3 c -49,2 -103,9 -120,16 -17,7 -159,147 -320,314 -160,166 -295,302 -301,302 -15,0 -34,-22 -34,-41 0,-9 129,-150 288,-314 158,-164 291,-304 296,-312 7,-13 25,-211 19,-217 -3,-3 -153,12 -178,18 -22,6 -345,394 -366,439 -6,12 -38,125 -73,250 l -62,227 -128,135 c -70,74 -135,135 -143,135 -17,0 -146,-117 -151,-136 -3,-12 359,-474 677,-864 l 183,-225 -6,-83 c -4,-46 -9,-89 -12,-96 -4,-11 -29,-6 -112,18 l -107,32 -357,555 c -333,517 -358,554 -385,554 -22,0 -29,-5 -31,-23 -3,-16 99,-182 352,-577 l 356,-553 -12,-97 c -7,-58 -16,-99 -24,-102 -17,-6 -171,36 -182,50 -5,7 -102,185 -215,397 -375,702 -421,785 -441,788 -10,2 -49,-11 -86,-30 -57,-27 -69,-37 -69,-57 -1,-14 24,-90 55,-169 l 56,-143 192,-165 191,-165 132,-252 133,-253 -26,-84 c -14,-47 -28,-88 -30,-92 -5,-8 -154,70 -189,98 -16,13 -69,136 -174,403 -83,212 -155,389 -160,394 -13,13 -61,-7 -61,-26 0,-7 70,-190 155,-407 l 155,-394 -32,-98 c -18,-54 -35,-98 -38,-98 -3,0 -43,22 -90,48 l -85,47 -79,265 -79,265 31,255 31,256 -59,149 -58,150 -34,-1 c -48,-1 -202,-60 -206,-78 -4,-18 152,-533 299,-989 l 99,-308 -45,-84 -46,-84 -89,70 c -72,57 -92,78 -99,107 -5,21 -64,309 -131,642 -67,333 -126,609 -130,614 -14,14 -60,-3 -60,-22 0,-9 58,-302 129,-651 l 128,-633 -50,-92 c -28,-50 -52,-93 -53,-94 -1,-2 -39,23 -82,57 -70,53 -81,65 -86,98 -3,21 -17,139 -31,263 -14,124 -48,403 -75,622 -28,218 -50,401 -50,407 0,12 -81,15 -154,5 l -46,-7 0,-170 0,-171 124,-226 124,-226 21,-249 c 11,-138 21,-260 21,-272 0,-22 -116,-166 -130,-161 -11,4 -115,130 -128,155 -9,15 -12,144 -12,448 l 0,426 -32,-3 -33,-3 -5,-437 -5,-438 -68,-80 c -38,-44 -73,-78 -78,-74 -6,3 -36,39 -68,79 l -58,72 31,274 31,274 118,222 117,221 0,170 0,169 -46,7 c -26,3 -68,6 -95,6 -47,0 -47,0 -53,-37 -9,-55 -50,-398 -106,-876 -30,-260 -53,-424 -61,-433 -17,-20 -134,-104 -145,-104 -5,0 -32,43 -60,96 l -51,95 128,641 c 71,353 127,643 126,645 -2,1 -17,6 -34,9 l -30,6 -129,-648 -129,-649 -85,-67 c -47,-38 -88,-68 -92,-68 -3,0 -27,38 -52,84 l -46,84 85,269 c 147,459 306,994 303,1015 -2,16 -24,28 -102,55 -54,19 -105,33 -113,31 -10,-2 -39,-63 -76,-158 l -60,-154 32,-253 33,-253 -78,-266 -78,-265 -84,-46 c -46,-25 -87,-42 -92,-37 -4,5 -22,52 -39,104 l -31,96 150,384 c 82,212 150,395 150,407 0,16 -8,25 -25,29 -14,4 -27,5 -29,3 -1,-2 -72,-184 -158,-404 l -155,-400 -94,-52 c -52,-29 -97,-52 -101,-52 -3,-1 -21,42 -38,94 l -31,94 128,247 128,247 191,165 192,165 61,157 c 33,86 61,162 61,168 0,14 -132,82 -157,82 -18,-1 -76,-105 -482,-875 -90,-170 -167,-314 -171,-318 -4,-5 -45,-19 -91,-32 -65,-19 -86,-21 -95,-12 -6,7 -16,54 -23,106 -11,86 -10,96 7,125 10,17 171,269 356,559 185,291 336,536 334,545 -2,11 -13,17 -32,17 -28,0 -49,-30 -383,-555 l -353,-555 -83,-28 c -45,-15 -95,-28 -112,-30 l -30,-2 -10,92 -11,93 201,248 c 274,340 649,820 653,835 3,14 -140,148 -155,146 -4,-1 -64,-61 -133,-133 l -126,-131 -65,-246 -66,-246 -174,-214 c -95,-118 -177,-217 -182,-220 -5,-3 -45,-9 -90,-12 -59,-5 -85,-3 -93,6 -8,8 -10,43 -6,106 l 5,93 250,262 c 138,143 273,285 301,314 42,43 49,55 40,70 -27,42 -44,28 -344,-285 l -295,-308 -100,-12 c -55,-7 -106,-11 -112,-8 -14,5 -16,42 -6,134 l 6,63 214,180 214,180 242,82 242,81 123,126 c 77,79 122,133 122,146 0,25 -88,133 -108,133 -14,0 -322,-249 -821,-663 l -264,-220 -85,11 c -46,5 -89,15 -95,21 -8,8 -5,36 13,107 l 24,95 543,380 c 299,209 543,386 543,394 0,11 -12,15 -43,15 -40,0 -75,-23 -564,-365 l -521,-365 -104,11 c -57,5 -107,14 -111,18 -5,5 2,48 16,96 l 23,88 260,141 c 437,238 634,350 634,364 0,8 -21,12 -73,12 -80,0 -97,9 -97,52 0,17 -5,28 -14,28 -7,0 -67,-66 -132,-146 l -119,-146 -248,-124 -247,-124 -90,31 c -50,17 -90,37 -90,43 0,6 21,49 48,96 l 47,85 398,160 c 381,154 397,161 395,185 -2,17 -10,26 -25,28 -12,2 -196,-67 -409,-153 l -387,-156 -108,36 c -60,20 -109,38 -109,40 0,2 90,166 95,173 1,2 123,37 271,78 l 268,76 196,-21 c 107,-12 210,-21 228,-21 l 32,0 0,105 c 0,93 -2,105 -18,105 -17,0 -346,-87 -753,-200 l -227,-63 -86,53 -85,52 44,57 c 103,128 27,102 607,211 l 513,97 3,31 c 3,25 -1,32 -15,32 -10,0 -244,-43 -521,-95 l -503,-95 -100,57 c -54,32 -99,60 -99,63 0,13 122,150 133,150 55,0 929,71 1055,85 l 52,6 0,120 0,119 -65,0 c -63,0 -69,-2 -287,-119 l -223,-119 -270,-21 c -304,-22 -270,-28 -369,61 l -59,54 85,68 84,69 432,-2 432,-2 0,29 0,29 -233,6 c -127,4 -321,7 -429,7 l -196,0 -91,77 c -51,42 -88,80 -84,83 5,4 41,33 81,64 l 72,57 268,-32 267,-31 222,-120 c 218,-117 224,-120 290,-121 l 68,-2 0,110 0,110 -170,22 c -93,12 -334,43 -535,68 -201,25 -374,47 -385,50 -11,3 -46,41 -77,84 l -57,80 95,51 95,51 503,-105 c 277,-58 511,-106 520,-106 18,0 23,54 6,65 -5,3 -232,53 -505,110 -272,57 -500,107 -504,110 -19,11 -142,175 -137,183 2,4 40,24 83,46 l 79,38 340,-110 c 487,-159 596,-192 627,-192 l 27,0 0,115 c 0,105 -2,115 -18,115 -11,0 -111,-9 -223,-20 l -204,-20 -265,88 -265,89 -42,84 c -23,46 -42,87 -42,90 -1,6 175,63 194,62 5,0 180,-73 387,-162 208,-88 388,-161 402,-161 23,0 36,16 36,45 0,8 -155,80 -393,181 l -393,167 -50,96 c -27,53 -49,100 -49,105 0,8 145,55 172,56 7,0 123,-62 258,-138 l 245,-138 110,-137 c 61,-75 117,-137 125,-137 10,0 15,16 17,58 l 3,57 43,3 c 34,3 43,7 40,20 -2,10 -157,105 -398,242 l -395,226 -22,89 c -12,50 -19,93 -15,97 10,9 195,27 207,20 6,-3 236,-160 512,-349 499,-341 502,-343 553,-343 40,0 51,3 48,14 -2,8 -241,178 -533,377 -291,199 -533,367 -537,372 -13,20 -61,208 -55,214 4,3 44,9 89,14 100,9 71,27 353,-216 335,-289 798,-675 811,-675 14,0 134,137 134,154 0,6 -57,71 -127,144 l -128,133 -243,73 c -137,42 -253,82 -265,93 -12,11 -104,91 -205,177 -101,87 -187,169 -192,181 -5,13 -10,58 -11,101 -2,90 -18,82 126,70 l 80,-7 301,-305 c 306,-311 321,-324 348,-282 12,19 24,6 -391,428 l -201,205 -6,80 c -4,44 -8,95 -11,114 l -4,34 92,-7 c 51,-4 100,-13 109,-19 16,-11 316,-389 343,-432 7,-11 43,-123 80,-249 l 67,-230 126,-133 c 70,-73 133,-133 141,-133 20,0 131,100 131,119 0,15 -272,376 -654,865 -94,122 -175,226 -179,232 -7,13 19,174 30,185 10,9 193,-46 208,-63 7,-7 169,-254 360,-548 192,-294 352,-539 356,-544 4,-5 19,-6 33,-2 19,5 26,13 26,30 0,14 -131,223 -325,521 -179,273 -340,522 -359,553 l -35,57 13,97 c 7,54 15,101 19,104 6,6 157,-33 175,-45 5,-3 87,-161 184,-351 301,-593 449,-870 465,-870 30,0 203,93 203,109 -1,9 -29,84 -64,166 l -63,150 -198,161 -198,160 -129,252 -129,251 27,86 c 16,47 32,85 37,85 6,0 49,-21 98,-47 84,-45 89,-50 112,-103 13,-30 86,-206 162,-390 76,-184 142,-339 146,-344 13,-15 59,11 59,32 0,11 -72,194 -161,407 l -161,389 31,97 c 17,54 35,100 39,103 4,2 46,-17 92,-42 l 85,-48 79,-264 78,-265 -22,-260 -23,-260 62,-150 c 35,-83 66,-154 71,-159 11,-11 180,53 180,69 0,13 -186,684 -294,1060 -36,126 -66,235 -66,242 0,19 91,164 101,161 25,-9 159,-123 165,-142 4,-11 64,-304 133,-651 l 126,-630 28,-3 c 18,-2 29,2 33,12 3,9 -51,306 -121,661 l -128,644 53,96 c 38,67 58,94 68,90 30,-11 131,-101 140,-125 6,-14 20,-146 32,-295 24,-300 96,-1045 102,-1050 2,-2 50,0 108,4 l 105,6 3,179 2,178 -124,228 -124,227 -21,249 c -11,137 -21,259 -21,271 0,22 116,166 130,161 11,-4 115,-130 128,-155 9,-15 12,-144 12,-448 l 0,-426 33,3 32,3 5,437 5,438 68,80 c 38,44 71,80 75,80 4,-1 34,-36 68,-79 z"
       id="path12"
       inkscape:connector-curvature="0" />
    <path
       d="m 4540,7791 0,-261 35,0 35,0 -2,258 -3,257 -32,3 -33,3 0,-260 z"
       id="path14"
       inkscape:connector-curvature="0" />
    <path
       d="m 4867,8043 c -4,-3 -7,-120 -7,-260 l 0,-253 35,0 35,0 0,260 0,260 -28,0 c -16,0 -32,-3 -35,-7 z"
       id="path16"
       inkscape:connector-curvature="0" />
    <path
       d="m 4214,7995 c -4,-9 15,-124 41,-256 l 48,-239 33,0 c 26,0 34,4 34,18 -1,9 -22,123 -48,252 -48,235 -48,235 -75,238 -18,2 -29,-2 -33,-13 z"
       id="path18"
       inkscape:connector-curvature="0" />
    <path
       d="m 5156,7759 c -51,-266 -51,-273 -2,-267 18,3 26,32 68,248 26,135 46,251 43,258 -2,6 -17,12 -32,12 l -29,0 -48,-251 z"
       id="path20"
       inkscape:connector-curvature="0" />
    <path
       d="m 3908,7943 c -25,-6 -23,-17 30,-278 42,-204 49,-230 67,-233 11,-1 27,2 35,8 13,8 8,42 -35,257 -52,256 -53,258 -97,246 z"
       id="path22"
       inkscape:connector-curvature="0" />
    <path
       d="m 5475,7699 c -26,-132 -44,-247 -41,-255 8,-20 53,-18 60,4 3,9 24,114 46,232 23,118 44,225 47,238 5,20 1,22 -30,22 l -35,0 -47,-241 z"
       id="path24"
       inkscape:connector-curvature="0" />
    <path
       d="m 3578,7853 c -10,-2 -18,-12 -18,-22 0,-20 166,-429 183,-449 16,-20 62,-11 64,13 4,31 -179,459 -197,461 -8,1 -23,0 -32,-3 z"
       id="path26"
       inkscape:connector-curvature="0" />
    <path
       d="m 5839,7813 c -85,-198 -169,-418 -165,-430 4,-9 16,-13 33,-11 25,3 33,18 115,218 50,121 87,226 86,240 -2,17 -10,26 -26,28 -18,3 -26,-5 -43,-45 z"
       id="path28"
       inkscape:connector-curvature="0" />
    <path
       d="m 6062,7512 c -51,-125 -92,-235 -92,-244 0,-16 45,-37 54,-27 11,12 186,452 186,468 0,18 -18,31 -43,31 -7,0 -54,-103 -105,-228 z"
       id="path30"
       inkscape:connector-curvature="0" />
    <path
       d="m 3264,7716 c -5,-14 167,-449 186,-469 4,-4 19,-5 34,-1 18,4 26,13 26,28 0,11 -40,118 -89,236 -88,210 -90,215 -120,218 -21,2 -33,-2 -37,-12 z"
       id="path32"
       inkscape:connector-curvature="0" />
    <path
       d="m 2974,7565 c -19,-14 -19,-15 3,-53 49,-88 254,-392 264,-392 20,0 49,21 49,36 0,14 -225,368 -258,407 -18,21 -32,22 -58,2 z"
       id="path34"
       inkscape:connector-curvature="0" />
    <path
       d="m 6325,7378 c -71,-111 -131,-210 -133,-220 -2,-11 6,-22 22,-30 15,-6 28,-9 30,-7 2,2 63,95 136,207 137,211 150,244 100,250 -22,2 -39,-19 -155,-200 z"
       id="path36"
       inkscape:connector-curvature="0" />
    <path
       d="m 6596,7198 c -143,-220 -152,-243 -95,-243 20,0 45,34 156,205 73,113 133,210 133,217 0,12 -30,33 -48,33 -5,0 -71,-96 -146,-212 z"
       id="path38"
       inkscape:connector-curvature="0" />
    <path
       d="m 2700,7385 c -7,-8 -9,-22 -6,-31 3,-9 63,-103 133,-210 84,-130 132,-194 144,-194 28,0 49,11 49,27 0,13 -225,366 -258,406 -18,21 -45,22 -62,2 z"
       id="path40"
       inkscape:connector-curvature="0" />
    <path
       d="m 6831,7019 c -144,-149 -173,-184 -164,-198 25,-40 47,-25 217,150 91,94 166,179 166,188 0,19 -19,41 -34,41 -6,0 -89,-82 -185,-181 z"
       id="path42"
       inkscape:connector-curvature="0" />
    <path
       d="m 2442,7178 c -7,-7 -12,-19 -12,-27 0,-17 327,-354 348,-359 18,-5 42,17 42,37 0,17 -338,361 -356,361 -5,0 -15,-5 -22,-12 z"
       id="path44"
       inkscape:connector-curvature="0" />
    <path
       d="m 2212,6958 c -7,-7 -12,-19 -12,-28 0,-9 75,-93 166,-188 170,-177 192,-191 217,-151 9,14 -20,49 -163,198 -96,100 -179,181 -185,181 -6,0 -16,-5 -23,-12 z"
       id="path46"
       inkscape:connector-curvature="0" />
    <path
       d="m 7061,6794 c -94,-96 -171,-181 -171,-188 0,-18 26,-38 43,-34 21,5 347,343 347,360 0,17 -20,38 -36,38 -6,0 -89,-79 -183,-176 z"
       id="path48"
       inkscape:connector-curvature="0" />
    <path
       d="m 2003,6699 c -22,-22 -15,-47 20,-73 79,-59 372,-256 382,-256 7,0 18,11 25,25 12,23 12,28 -6,44 -27,26 -376,263 -394,268 -8,2 -21,-2 -27,-8 z"
       id="path50"
       inkscape:connector-curvature="0" />
    <path
       d="m 7243,6573 c -115,-78 -203,-145 -203,-153 0,-20 19,-40 38,-40 7,0 102,61 210,136 173,119 197,139 197,162 0,52 -33,38 -242,-105 z"
       id="path52"
       inkscape:connector-curvature="0" />
    <path
       d="m 4554,6619 c -359,-32 -733,-180 -1019,-403 -137,-108 -345,-325 -345,-362 0,-12 204,-14 1550,-14 1485,0 1550,1 1550,18 0,10 -38,61 -84,114 -416,471 -1011,704 -1652,647 z"
       id="path54"
       inkscape:connector-curvature="0" />
    <path
       d="m 7432,6309 c -165,-114 -203,-145 -200,-161 8,-54 28,-46 241,101 114,79 207,147 207,153 0,18 -21,48 -33,48 -7,0 -103,-64 -215,-141 z"
       id="path56"
       inkscape:connector-curvature="0" />
    <path
       d="m 1810,6416 c -8,-16 -10,-30 -4,-35 5,-5 96,-68 202,-140 203,-139 234,-152 240,-99 3,24 -14,38 -190,159 -106,73 -202,134 -213,136 -15,3 -25,-3 -35,-21 z"
       id="path58"
       inkscape:connector-curvature="0" />
    <path
       d="m 7582,6054 c -214,-93 -223,-98 -220,-123 2,-15 10,-27 20,-29 9,-2 119,40 243,94 217,93 226,98 223,123 -2,17 -10,27 -23,28 -11,2 -120,-41 -243,-93 z"
       id="path60"
       inkscape:connector-curvature="0" />
    <path
       d="m 1644,6126 c -15,-40 1,-51 216,-143 118,-50 223,-92 233,-92 20,-1 45,45 31,59 -16,16 -432,190 -454,190 -11,0 -23,-6 -26,-14 z"
       id="path62"
       inkscape:connector-curvature="0" />
    <path
       d="m 1514,5824 c -4,-16 -2,-31 7,-39 21,-20 418,-185 445,-185 17,0 25,7 30,25 4,14 4,28 1,32 -11,11 -446,193 -461,193 -9,0 -19,-12 -22,-26 z"
       id="path64"
       inkscape:connector-curvature="0" />
    <path
       d="m 7703,5757 c -201,-87 -213,-93 -213,-119 0,-15 5,-30 11,-34 6,-3 114,38 240,91 222,95 229,99 229,127 0,24 -4,28 -27,27 -16,-1 -124,-42 -240,-92 z"
       id="path66"
       inkscape:connector-curvature="0" />
    <path
       d="m 2430,4690 0,-1120 2330,0 2330,0 0,1120 0,1120 -2330,0 -2330,0 0,-1120 z m 2505,912 c 34,-17 80,-46 102,-66 22,-20 44,-36 49,-36 5,1 26,26 47,56 63,90 67,76 67,-207 0,-232 -5,-268 -31,-242 -6,6 -19,52 -29,104 -51,250 -199,393 -387,376 -73,-7 -106,-23 -149,-69 -42,-46 -62,-79 -90,-154 -48,-128 -56,-224 -55,-649 1,-599 20,-713 137,-835 65,-68 94,-80 199,-80 175,1 282,124 355,405 26,102 33,113 55,95 13,-11 15,-47 13,-268 -2,-181 -6,-256 -14,-259 -7,-2 -28,23 -49,57 -20,33 -43,60 -52,60 -9,0 -35,-18 -58,-39 -86,-79 -213,-120 -313,-101 -120,22 -231,98 -313,213 -106,148 -184,349 -214,547 -74,482 171,1039 491,1120 67,16 169,4 239,-28 z m 1135,-7 c 22,-27 0,-35 -96,-35 -91,0 -94,-1 -93,-22 0,-13 71,-300 157,-638 115,-452 161,-616 172,-618 12,-2 48,127 173,625 87,346 157,634 157,641 0,9 -25,12 -89,12 -65,0 -92,4 -101,15 -25,30 0,35 184,35 153,0 186,-3 196,-15 20,-25 1,-34 -75,-37 l -70,-3 -216,-875 c -118,-481 -219,-887 -222,-902 -8,-29 -30,-37 -44,-15 -4,6 -109,413 -234,902 l -226,890 -70,3 c -70,3 -103,18 -88,42 4,6 103,10 289,10 236,0 286,-2 296,-15 z m -2562,-19 c 185,-47 285,-155 314,-339 35,-225 -91,-422 -309,-487 -53,-16 -55,-36 -5,-45 64,-11 183,-75 232,-124 106,-106 154,-288 119,-453 -36,-169 -165,-297 -336,-333 -100,-21 -755,-22 -773,0 -22,26 0,35 91,35 l 89,0 0,855 0,855 -84,0 c -88,0 -115,12 -102,46 6,15 40,16 354,11 274,-4 360,-8 410,-21 z"
       id="path68"
       inkscape:connector-curvature="0" />
    <path
       d="m 3160,5146 0,-396 123,0 c 107,0 128,3 167,23 99,49 134,169 127,427 -2,91 -10,183 -17,204 -6,21 -31,60 -55,85 l -44,46 -150,3 -151,4 0,-396 z"
       id="path70"
       inkscape:connector-curvature="0" />
    <path
       d="m 3162,4263 3,-428 152,0 c 168,0 183,5 231,75 43,64 54,124 59,317 7,266 -19,363 -119,434 -31,22 -44,24 -181,27 l -147,4 2,-429 z"
       id="path72"
       inkscape:connector-curvature="0" />
    <path
       d="m 7783,5477 -233,-50 0,-28 c 0,-15 4,-30 9,-33 5,-3 120,18 255,47 l 247,52 -3,30 c -2,22 -9,30 -23,32 -11,0 -125,-22 -252,-50 z"
       id="path74"
       inkscape:connector-curvature="0" />
    <path
       d="m 1426,5494 c -4,-15 -3,-30 1,-34 9,-9 448,-100 480,-100 16,0 25,8 29,25 4,14 4,29 0,32 -7,7 -453,102 -482,103 -15,0 -24,-8 -28,-26 z"
       id="path76"
       inkscape:connector-curvature="0" />
    <path
       d="m 7845,5158 c -126,-27 -232,-51 -234,-53 -2,-2 -1,-16 3,-30 5,-18 13,-25 30,-25 21,0 427,83 469,96 29,9 19,58 -13,61 -14,1 -128,-21 -255,-49 z"
       id="path78"
       inkscape:connector-curvature="0" />
    <path
       d="m 1362,5168 3,-32 225,-48 c 124,-26 238,-47 253,-48 26,0 28,3 25,32 l -3,33 -220,47 c -121,26 -235,47 -253,47 -31,1 -33,-1 -30,-31 z"
       id="path80"
       inkscape:connector-curvature="0" />
    <path
       d="m 7673,4863 c -18,-3 -23,-11 -23,-34 l 0,-29 163,0 c 89,0 206,3 260,7 l 97,6 0,29 0,28 -237,-1 c -131,-1 -248,-4 -260,-6 z"
       id="path82"
       inkscape:connector-curvature="0" />
    <path
       d="m 1320,4830 0,-30 78,0 c 44,0 161,-3 260,-7 l 182,-6 0,36 0,37 -260,0 -260,0 0,-30 z"
       id="path84"
       inkscape:connector-curvature="0" />
    <path
       d="m 7733,4543 -83,-4 0,-30 0,-29 258,2 257,3 3,33 3,32 -178,-2 c -98,-1 -215,-4 -260,-5 z"
       id="path86"
       inkscape:connector-curvature="0" />
    <path
       d="m 1320,4512 0,-29 92,-7 c 50,-3 167,-6 260,-6 l 169,0 -3,33 -3,32 -257,3 -258,2 0,-28 z"
       id="path88"
       inkscape:connector-curvature="0" />
    <path
       d="m 1593,4252 -243,-46 0,-27 c 0,-15 4,-30 9,-33 5,-3 116,14 247,39 132,25 242,45 247,45 4,0 7,16 7,35 0,22 -5,35 -12,34 -7,0 -122,-22 -255,-47 z"
       id="path90"
       inkscape:connector-curvature="0" />
    <path
       d="m 7626,4274 c -4,-15 -5,-28 -3,-31 10,-9 489,-94 503,-89 8,3 14,18 14,34 l 0,28 -228,42 c -273,50 -278,51 -286,16 z"
       id="path92"
       inkscape:connector-curvature="0" />
    <path
       d="m 1648,3932 -238,-45 0,-28 c 0,-15 4,-30 9,-33 10,-7 493,84 505,95 14,13 -3,59 -22,58 -9,-1 -124,-22 -254,-47 z"
       id="path94"
       inkscape:connector-curvature="0" />
    <path
       d="m 7566,3954 c -4,-15 -5,-28 -3,-31 9,-8 491,-94 504,-89 14,6 18,66 4,66 -5,0 -105,18 -222,40 -260,48 -275,49 -283,14 z"
       id="path96"
       inkscape:connector-curvature="0" />
    <path
       d="m 1728,3647 c -218,-88 -228,-93 -228,-119 0,-15 5,-30 10,-33 6,-4 116,35 245,87 175,69 235,97 235,110 0,26 -11,48 -24,47 -6,0 -113,-42 -238,-92 z"
       id="path98"
       inkscape:connector-curvature="0" />
    <path
       d="m 7506,3714 c -4,-15 -3,-30 1,-34 13,-12 442,-180 458,-180 19,0 42,47 29,59 -15,16 -437,181 -460,181 -15,0 -24,-8 -28,-26 z"
       id="path100"
       inkscape:connector-curvature="0" />
    <path
       d="m 3170,3515 c 0,-21 137,-181 227,-265 361,-337 776,-510 1268,-527 543,-19 1044,169 1429,536 85,81 216,237 216,256 0,13 -199,15 -1570,15 -1373,0 -1570,-2 -1570,-15 z"
       id="path102"
       inkscape:connector-curvature="0" />
    <path
       d="m 1848,3348 c -220,-88 -228,-93 -228,-119 0,-15 5,-31 10,-34 10,-6 456,168 474,185 12,12 -2,60 -17,59 -6,0 -114,-41 -239,-91 z"
       id="path104"
       inkscape:connector-curvature="0" />
    <path
       d="m 7386,3414 c -4,-15 -5,-28 -3,-30 10,-10 453,-184 468,-184 17,0 34,43 24,59 -8,14 -433,181 -459,181 -17,0 -26,-7 -30,-26 z"
       id="path106"
       inkscape:connector-curvature="0" />
    <path
       d="m 7261,3226 c -8,-13 -11,-29 -7,-34 13,-21 398,-282 417,-282 24,0 37,46 18,65 -28,27 -392,275 -404,275 -6,0 -17,-11 -24,-24 z"
       id="path108"
       inkscape:connector-curvature="0" />
    <path
       d="m 1992,3099 c -130,-92 -202,-148 -202,-159 0,-26 27,-45 49,-34 57,28 401,280 401,294 0,18 -19,40 -35,40 -6,0 -102,-64 -213,-141 z"
       id="path110"
       inkscape:connector-curvature="0" />
    <path
       d="m 7080,2965 c -6,-8 -10,-22 -8,-32 4,-20 383,-291 409,-292 9,-1 22,10 29,24 12,22 12,28 -1,39 -28,27 -393,276 -405,276 -6,0 -17,-7 -24,-15 z"
       id="path112"
       inkscape:connector-curvature="0" />
    <path
       d="m 2177,2833 c -174,-122 -197,-141 -195,-163 6,-50 38,-36 243,107 108,75 200,143 202,150 7,17 -15,43 -36,43 -9,0 -106,-62 -214,-137 z"
       id="path114"
       inkscape:connector-curvature="0" />
    <path
       d="m 6922,2778 c -7,-7 -12,-19 -12,-28 0,-8 78,-96 174,-195 152,-158 176,-179 192,-169 11,6 20,19 22,28 4,17 -333,376 -353,376 -6,0 -16,-5 -23,-12 z"
       id="path116"
       inkscape:connector-curvature="0" />
    <path
       d="m 2367,2605 c -105,-108 -167,-181 -165,-191 2,-9 11,-22 20,-28 20,-12 63,27 261,237 91,98 109,122 100,135 -24,40 -46,25 -216,-153 z"
       id="path118"
       inkscape:connector-curvature="0" />
    <path
       d="m 2600,2384 c -171,-180 -194,-216 -140,-222 21,-2 54,27 193,172 92,96 167,181 167,188 0,19 -21,38 -39,37 -9,0 -90,-79 -181,-175 z"
       id="path120"
       inkscape:connector-curvature="0" />
    <path
       d="m 6693,2553 c -34,-13 -6,-53 153,-217 92,-94 173,-172 181,-174 17,-4 43,16 43,34 0,17 -338,364 -354,363 -6,0 -17,-3 -23,-6 z"
       id="path122"
       inkscape:connector-curvature="0" />
    <path
       d="m 6498,2406 c -10,-7 -18,-19 -18,-25 0,-21 262,-421 275,-421 28,0 45,13 45,34 0,27 -252,420 -271,423 -8,2 -22,-3 -31,-11 z"
       id="path124"
       inkscape:connector-curvature="0" />
    <path
       d="m 2823,2202 c -73,-115 -133,-214 -133,-221 0,-16 48,-37 59,-25 5,5 66,98 135,208 132,206 145,238 96,244 -22,2 -38,-19 -157,-206 z"
       id="path126"
       inkscape:connector-curvature="0" />
    <path
       d="m 3101,2034 c -136,-214 -149,-246 -101,-252 22,-2 39,19 159,209 140,219 147,239 94,247 -16,2 -45,-36 -152,-204 z"
       id="path128"
       inkscape:connector-curvature="0" />
    <path
       d="m 6222,2228 c -6,-6 -12,-18 -12,-25 0,-19 260,-423 272,-423 21,0 48,22 48,38 0,9 -58,107 -128,217 -128,199 -150,223 -180,193 z"
       id="path130"
       inkscape:connector-curvature="0" />
    <path
       d="m 6008,2109 c -10,-5 -18,-16 -18,-24 0,-17 169,-447 180,-459 5,-5 20,-6 34,-2 18,4 26,13 26,29 -1,38 -174,462 -190,464 -8,2 -23,-2 -32,-8 z"
       id="path132"
       inkscape:connector-curvature="0" />
    <path
       d="m 3357,1884 c -49,-124 -87,-233 -85,-242 2,-10 15,-18 29,-20 22,-3 29,3 42,35 104,263 167,435 162,443 -3,5 -18,10 -33,10 -26,0 -31,-9 -115,-226 z"
       id="path134"
       inkscape:connector-curvature="0" />
    <path
       d="m 3746,1992 c -14,-23 -176,-448 -176,-463 0,-16 19,-29 44,-29 16,0 189,442 184,472 -3,23 -41,38 -52,20 z"
       id="path136"
       inkscape:connector-curvature="0" />
    <path
       d="m 5708,1993 c -10,-2 -18,-12 -18,-21 0,-17 168,-452 180,-465 4,-4 19,-5 34,-1 20,5 26,12 25,33 -1,43 -172,456 -189,457 -8,1 -23,0 -32,-3 z"
       id="path138"
       inkscape:connector-curvature="0" />
    <path
       d="m 3990,1927 c 0,-2 -22,-115 -50,-251 -27,-137 -47,-252 -44,-257 3,-5 18,-9 33,-9 l 28,0 47,234 c 25,129 46,243 46,254 0,11 -7,23 -16,26 -16,6 -44,8 -44,3 z"
       id="path140"
       inkscape:connector-curvature="0" />
    <path
       d="m 5468,1923 c -26,-7 -23,-32 27,-283 25,-123 45,-225 45,-227 0,-7 46,-2 59,6 13,8 -1,85 -81,464 -9,46 -14,50 -50,40 z"
       id="path142"
       inkscape:connector-curvature="0" />
    <path
       d="m 4305,1848 c -5,-14 -95,-481 -95,-492 0,-3 15,-6 33,-6 l 33,0 47,243 c 26,133 48,248 47,255 0,7 -13,12 -30,12 -17,0 -33,-6 -35,-12 z"
       id="path144"
       inkscape:connector-curvature="0" />
    <path
       d="m 5137,1854 c -13,-13 -8,-45 40,-276 l 47,-228 33,0 c 25,0 33,4 33,18 -1,9 -22,123 -48,252 -46,228 -49,235 -73,238 -14,2 -28,0 -32,-4 z"
       id="path146"
       inkscape:connector-curvature="0" />
    <path
       d="m 4550,1569 0,-260 33,3 32,3 3,258 2,257 -35,0 -35,0 0,-261 z"
       id="path148"
       inkscape:connector-curvature="0" />
    <path
       d="m 4872,1573 3,-258 33,-3 32,-3 0,260 0,261 -35,0 -35,0 2,-257 z"
       id="path150"
       inkscape:connector-curvature="0" />
    <path
       d="m 4700,8540 0,-250 35,0 35,0 0,250 0,250 -35,0 -35,0 0,-250 z"
       id="path152"
       inkscape:connector-curvature="0" />
    <path
       d="m 3918,8713 c -10,-2 -18,-9 -18,-15 0,-6 21,-118 46,-249 l 47,-239 29,0 c 16,0 31,6 34,14 3,8 -16,122 -43,253 -50,245 -51,248 -95,236 z"
       id="path154"
       inkscape:connector-curvature="0" />
    <path
       d="m 5510,8718 c 0,-2 -20,-106 -45,-233 -25,-126 -45,-240 -45,-252 0,-19 6,-23 30,-23 23,0 31,5 34,23 25,113 86,437 86,453 0,21 -17,34 -46,34 -8,0 -14,-1 -14,-2 z"
       id="path156"
       inkscape:connector-curvature="0" />
    <path
       d="m 3133,8483 c -7,-2 -13,-11 -13,-19 0,-8 41,-113 91,-234 89,-215 92,-220 120,-220 17,0 32,6 36,15 5,15 -157,426 -179,453 -11,12 -33,15 -55,5 z"
       id="path158"
       inkscape:connector-curvature="0" />
    <path
       d="m 6262,8418 c -120,-290 -154,-379 -148,-393 4,-11 15,-15 32,-13 24,3 33,21 115,222 50,121 89,226 87,235 -2,9 -15,17 -29,19 -24,3 -29,-3 -57,-70 z"
       id="path160"
       inkscape:connector-curvature="0" />
    <path
       d="m 2428,8116 c -10,-7 -18,-19 -18,-26 0,-16 244,-393 266,-411 17,-14 64,2 64,22 0,20 -271,429 -284,429 -6,0 -19,-7 -28,-14 z"
       id="path162"
       inkscape:connector-curvature="0" />
    <path
       d="m 6876,7925 c -70,-108 -130,-203 -133,-211 -7,-18 14,-44 37,-44 22,0 283,401 278,427 -2,11 -14,19 -29,21 -24,3 -37,-14 -153,-193 z"
       id="path164"
       inkscape:connector-curvature="0" />
    <path
       d="m 1792,7608 c -7,-7 -12,-19 -12,-28 0,-8 79,-94 175,-190 150,-150 178,-173 193,-164 39,25 26,45 -149,220 -96,96 -179,174 -184,174 -6,0 -16,-5 -23,-12 z"
       id="path166"
       inkscape:connector-curvature="0" />
    <path
       d="m 7476,7449 c -126,-129 -166,-177 -164,-193 2,-13 11,-22 26,-24 18,-3 55,30 185,164 89,91 163,173 165,181 4,17 -16,43 -33,43 -7,0 -88,-77 -179,-171 z"
       id="path168"
       inkscape:connector-curvature="0" />
    <path
       d="m 1272,6998 c -23,-23 -12,-48 41,-86 128,-94 354,-242 368,-242 21,0 42,25 37,44 -3,16 -404,296 -423,296 -6,0 -16,-5 -23,-12 z"
       id="path170"
       inkscape:connector-curvature="0" />
    <path
       d="m 7970,6875 c -107,-74 -199,-141 -204,-149 -13,-20 12,-49 38,-44 37,7 406,268 406,287 0,19 -19,41 -34,41 -6,-1 -99,-61 -206,-135 z"
       id="path172"
       inkscape:connector-curvature="0" />
    <path
       d="m 8342,6203 c -214,-92 -223,-97 -220,-122 2,-17 10,-27 23,-28 11,-2 117,39 235,91 209,90 215,94 215,122 0,18 -6,30 -15,31 -8,2 -115,-41 -238,-94 z"
       id="path174"
       inkscape:connector-curvature="0" />
    <path
       d="m 872,6259 c 3,-31 7,-33 223,-125 121,-52 228,-94 237,-94 23,0 35,47 17,64 -24,22 -423,186 -452,186 -26,0 -28,-3 -25,-31 z"
       id="path176"
       inkscape:connector-curvature="0" />
    <path
       d="m 8568,5477 -238,-52 0,-32 c 0,-18 3,-33 8,-33 4,0 119,23 255,52 l 248,52 -3,30 c -2,18 -9,32 -18,33 -8,1 -122,-22 -252,-50 z"
       id="path178"
       inkscape:connector-curvature="0" />
    <path
       d="m 630,5491 c 0,-17 4,-32 9,-35 18,-11 495,-107 507,-102 15,6 20,66 6,66 -5,0 -115,23 -246,50 -131,28 -246,50 -257,50 -14,0 -19,-7 -19,-29 z"
       id="path180"
       inkscape:connector-curvature="0" />
    <path
       d="m 8508,4713 -98,-4 0,-29 0,-30 255,0 255,0 0,35 0,35 -157,-2 c -87,-1 -202,-4 -255,-5 z"
       id="path182"
       inkscape:connector-curvature="0" />
    <path
       d="m 550,4675 0,-35 265,0 265,0 0,28 0,29 -167,6 c -91,4 -210,7 -265,7 l -98,0 0,-35 z"
       id="path184"
       inkscape:connector-curvature="0" />
    <path
       d="m 8347,3993 c -4,-3 -7,-17 -7,-29 0,-19 8,-24 53,-33 75,-16 430,-81 438,-81 6,0 22,61 16,66 -5,6 -441,84 -467,84 -14,0 -30,-3 -33,-7 z"
       id="path186"
       inkscape:connector-curvature="0" />
    <path
       d="m 855,3947 -220,-42 -3,-33 c -3,-25 0,-32 15,-32 10,0 124,20 253,45 129,25 239,45 243,45 5,0 7,12 5,28 -3,23 -8,27 -38,29 -19,1 -134,-17 -255,-40 z"
       id="path188"
       inkscape:connector-curvature="0" />
    <path
       d="m 8154,3284 c -4,-14 -2,-30 3,-35 14,-14 404,-169 425,-169 20,0 36,46 21,61 -14,14 -404,169 -425,169 -11,0 -20,-10 -24,-26 z"
       id="path190"
       inkscape:connector-curvature="0" />
    <path
       d="m 1083,3212 c -203,-83 -213,-88 -213,-114 0,-15 5,-30 11,-33 6,-4 114,35 240,86 231,94 249,105 217,137 -7,7 -19,12 -27,11 -9,0 -112,-40 -228,-87 z"
       id="path192"
       inkscape:connector-curvature="0" />
    <path
       d="m 7792,2660 c -6,-11 -12,-24 -12,-29 0,-5 82,-67 183,-137 195,-138 239,-156 245,-104 3,23 -18,40 -187,158 -105,72 -196,132 -203,132 -7,0 -19,-9 -26,-20 z"
       id="path194"
       inkscape:connector-curvature="0" />
    <path
       d="m 1468,2532 c -175,-121 -198,-140 -195,-162 5,-51 38,-37 241,106 120,84 196,143 196,154 0,18 -19,40 -34,40 -6,0 -100,-62 -208,-138 z"
       id="path196"
       inkscape:connector-curvature="0" />
    <path
       d="m 7332,2118 c -7,-7 -12,-19 -12,-27 0,-9 74,-92 164,-186 143,-149 166,-169 183,-159 10,6 18,20 18,31 0,23 -308,353 -329,353 -7,0 -17,-5 -24,-12 z"
       id="path198"
       inkscape:connector-curvature="0" />
    <path
       d="m 1965,1951 c -162,-171 -181,-200 -143,-224 14,-9 40,13 161,139 193,199 203,212 190,233 -24,38 -46,22 -208,-148 z"
       id="path200"
       inkscape:connector-curvature="0" />
    <path
       d="m 6772,1678 c -7,-7 -12,-20 -12,-30 0,-16 215,-363 246,-397 11,-12 18,-12 39,-3 14,6 25,19 25,27 0,15 -182,309 -237,383 -26,34 -42,39 -61,20 z"
       id="path202"
       inkscape:connector-curvature="0" />
    <path
       d="m 2556,1478 c -71,-111 -131,-210 -134,-220 -5,-20 43,-48 57,-32 4,5 65,99 135,208 132,206 144,238 96,244 -22,2 -38,-18 -154,-200 z"
       id="path204"
       inkscape:connector-curvature="0" />
    <path
       d="m 3236,1126 c -48,-124 -86,-234 -84,-243 2,-11 14,-19 29,-21 25,-3 29,5 113,222 48,124 86,234 84,243 -2,11 -14,19 -29,21 -25,3 -29,-5 -113,-222 z"
       id="path206"
       inkscape:connector-curvature="0" />
    <path
       d="m 6133,1344 c -7,-3 -13,-15 -13,-26 0,-21 156,-427 170,-442 5,-5 20,-6 34,-2 18,4 26,13 26,29 0,12 -38,116 -84,232 -84,213 -92,226 -133,209 z"
       id="path208"
       inkscape:connector-curvature="0" />
    <path
       d="m 3957,918 c -26,-128 -47,-243 -47,-255 0,-19 6,-23 29,-23 20,0 31,6 35,18 17,56 86,440 84,461 -2,20 -10,27 -29,29 l -26,3 -46,-233 z"
       id="path210"
       inkscape:connector-curvature="0" />
    <path
       d="m 5453,1143 c -20,-8 -16,-47 27,-260 51,-250 45,-233 81,-233 25,0 29,4 29,28 0,23 -64,360 -85,450 -5,21 -24,27 -52,15 z"
       id="path212"
       inkscape:connector-curvature="0" />
    <path
       d="m 4710,820 0,-250 35,0 35,0 0,250 0,250 -35,0 -35,0 0,-250 z"
       id="path214"
       inkscape:connector-curvature="0" />
  </g>
</svg>
